  <svg width="94" height="25" viewBox="0 0 94 25" fill="none"
                                    xmlns="http://www.w3.org/2000/svg">
                                    <path
                                        d="M9 13.525L11.25 15.775L15 10.525M21 12.775C21 17.7456 16.9706 21.775 12 21.775C7.02944 21.775 3 17.7456 3 12.775C3 7.80443 7.02944 3.77499 12 3.77499C16.9706 3.77499 21 7.80443 21 12.775Z"
                                        stroke="#696969" stroke-width="1.5" stroke-linecap="round"
                                        stroke-linejoin="round" />
                                    <path
                                        d="M28.608 8.53499V7.20699H31.616V18.775H30.144V8.53499H28.608ZM36.229 12.759C35.6317 12.5243 35.173 12.183 34.853 11.735C34.533 11.287 34.373 10.743 34.373 10.103C34.373 9.52699 34.517 9.00966 34.805 8.55099C35.093 8.08166 35.5197 7.71366 36.085 7.44699C36.661 7.16966 37.3543 7.03099 38.165 7.03099C38.9757 7.03099 39.6637 7.16966 40.229 7.44699C40.805 7.71366 41.237 8.08166 41.525 8.55099C41.8237 9.00966 41.973 9.52699 41.973 10.103C41.973 10.7217 41.8077 11.2657 41.477 11.735C41.1463 12.1937 40.693 12.535 40.117 12.759C40.7783 12.9617 41.301 13.319 41.685 13.831C42.0797 14.3323 42.277 14.9403 42.277 15.655C42.277 16.3483 42.1063 16.9563 41.765 17.479C41.4237 17.991 40.9383 18.391 40.309 18.679C39.6903 18.9563 38.9757 19.095 38.165 19.095C37.3543 19.095 36.6397 18.9563 36.021 18.679C35.413 18.391 34.9383 17.991 34.597 17.479C34.2557 16.9563 34.085 16.3483 34.085 15.655C34.085 14.9403 34.277 14.327 34.661 13.815C35.045 13.303 35.5677 12.951 36.229 12.759ZM40.565 10.279C40.565 9.62833 40.3517 9.12699 39.925 8.77499C39.4983 8.42299 38.9117 8.24699 38.165 8.24699C37.429 8.24699 36.8477 8.42299 36.421 8.77499C35.9943 9.12699 35.781 9.63366 35.781 10.295C35.781 10.8923 35.9997 11.3723 36.437 11.735C36.885 12.0977 37.461 12.279 38.165 12.279C38.8797 12.279 39.4557 12.0977 39.893 11.735C40.341 11.3617 40.565 10.8763 40.565 10.279ZM38.165 13.399C37.3757 13.399 36.7303 13.5857 36.229 13.959C35.7277 14.3217 35.477 14.871 35.477 15.607C35.477 16.2897 35.717 16.839 36.197 17.255C36.6877 17.671 37.3437 17.879 38.165 17.879C38.9863 17.879 39.637 17.671 40.117 17.255C40.597 16.839 40.837 16.2897 40.837 15.607C40.837 14.8923 40.5917 14.3483 40.101 13.975C39.6103 13.591 38.965 13.399 38.165 13.399ZM52.3324 9.86299C53.0897 9.86299 53.751 10.0283 54.3164 10.359C54.8924 10.6897 55.319 11.1057 55.5964 11.607V10.007H57.0684V18.967C57.0684 19.767 56.8977 20.4763 56.5564 21.095C56.215 21.7243 55.7244 22.215 55.0844 22.567C54.455 22.919 53.719 23.095 52.8764 23.095C51.7244 23.095 50.7644 22.823 49.9964 22.279C49.2284 21.735 48.775 20.9937 48.6364 20.055H50.0764C50.2364 20.5883 50.567 21.015 51.0684 21.335C51.5697 21.6657 52.1724 21.831 52.8764 21.831C53.6764 21.831 54.327 21.5803 54.8284 21.079C55.3404 20.5777 55.5964 19.8737 55.5964 18.967V17.127C55.3084 17.639 54.8817 18.0657 54.3164 18.407C53.751 18.7483 53.0897 18.919 52.3324 18.919C51.5537 18.919 50.8444 18.727 50.2044 18.343C49.575 17.959 49.079 17.4203 48.7164 16.727C48.3537 16.0337 48.1724 15.2443 48.1724 14.359C48.1724 13.463 48.3537 12.679 48.7164 12.007C49.079 11.3243 49.575 10.7963 50.2044 10.423C50.8444 10.0497 51.5537 9.86299 52.3324 9.86299ZM55.5964 14.375C55.5964 13.7137 55.463 13.1377 55.1964 12.647C54.9297 12.1563 54.567 11.783 54.1084 11.527C53.6604 11.2603 53.1644 11.127 52.6204 11.127C52.0764 11.127 51.5804 11.255 51.1324 11.511C50.6844 11.767 50.327 12.1403 50.0604 12.631C49.7937 13.1217 49.6604 13.6977 49.6604 14.359C49.6604 15.031 49.7937 15.6177 50.0604 16.119C50.327 16.6097 50.6844 16.9883 51.1324 17.255C51.5804 17.511 52.0764 17.639 52.6204 17.639C53.1644 17.639 53.6604 17.511 54.1084 17.255C54.567 16.9883 54.9297 16.6097 55.1964 16.119C55.463 15.6177 55.5964 15.0363 55.5964 14.375ZM63.3529 18.919C62.5315 18.919 61.7849 18.7323 61.1129 18.359C60.4515 17.9857 59.9289 17.4577 59.5449 16.775C59.1715 16.0817 58.9849 15.2817 58.9849 14.375C58.9849 13.479 59.1769 12.6897 59.5609 12.007C59.9555 11.3137 60.4889 10.7857 61.1609 10.423C61.8329 10.0497 62.5849 9.86299 63.4169 9.86299C64.2489 9.86299 65.0009 10.0497 65.6729 10.423C66.3449 10.7857 66.8729 11.3083 67.2569 11.991C67.6515 12.6737 67.8489 13.4683 67.8489 14.375C67.8489 15.2817 67.6462 16.0817 67.2409 16.775C66.8462 17.4577 66.3075 17.9857 65.6249 18.359C64.9422 18.7323 64.1849 18.919 63.3529 18.919ZM63.3529 17.639C63.8755 17.639 64.3662 17.5163 64.8249 17.271C65.2835 17.0257 65.6515 16.6577 65.9289 16.167C66.2169 15.6763 66.3609 15.079 66.3609 14.375C66.3609 13.671 66.2222 13.0737 65.9449 12.583C65.6675 12.0923 65.3049 11.7297 64.8569 11.495C64.4089 11.2497 63.9235 11.127 63.4009 11.127C62.8675 11.127 62.3769 11.2497 61.9289 11.495C61.4915 11.7297 61.1395 12.0923 60.8729 12.583C60.6062 13.0737 60.4729 13.671 60.4729 14.375C60.4729 15.0897 60.6009 15.6923 60.8569 16.183C61.1235 16.6737 61.4755 17.0417 61.9129 17.287C62.3502 17.5217 62.8302 17.639 63.3529 17.639ZM70.5153 8.58299C70.2379 8.58299 70.0033 8.48699 69.8113 8.29499C69.6193 8.10299 69.5233 7.86833 69.5233 7.59099C69.5233 7.31366 69.6193 7.07899 69.8113 6.88699C70.0033 6.69499 70.2379 6.59899 70.5153 6.59899C70.7819 6.59899 71.0059 6.69499 71.1873 6.88699C71.3793 7.07899 71.4753 7.31366 71.4753 7.59099C71.4753 7.86833 71.3793 8.10299 71.1873 8.29499C71.0059 8.48699 70.7819 8.58299 70.5153 8.58299ZM71.2193 10.007V18.775H69.7633V10.007H71.2193ZM77.9728 9.84699C79.0394 9.84699 79.9034 10.1723 80.5648 10.823C81.2261 11.463 81.5568 12.391 81.5568 13.607V18.775H80.1168V13.815C80.1168 12.9403 79.8981 12.2737 79.4608 11.815C79.0234 11.3457 78.4261 11.111 77.6688 11.111C76.9008 11.111 76.2874 11.351 75.8288 11.831C75.3808 12.311 75.1568 13.0097 75.1568 13.927V18.775H73.7008V10.007H75.1568V11.255C75.4448 10.807 75.8341 10.4603 76.3248 10.215C76.8261 9.96966 77.3754 9.84699 77.9728 9.84699ZM87.5511 9.86299C88.3085 9.86299 88.9698 10.0283 89.5351 10.359C90.1111 10.6897 90.5378 11.1057 90.8151 11.607V10.007H92.2871V18.967C92.2871 19.767 92.1165 20.4763 91.7751 21.095C91.4338 21.7243 90.9431 22.215 90.3031 22.567C89.6738 22.919 88.9378 23.095 88.0951 23.095C86.9431 23.095 85.9831 22.823 85.2151 22.279C84.4471 21.735 83.9938 20.9937 83.8551 20.055H85.2951C85.4551 20.5883 85.7858 21.015 86.2871 21.335C86.7885 21.6657 87.3911 21.831 88.0951 21.831C88.8951 21.831 89.5458 21.5803 90.0471 21.079C90.5591 20.5777 90.8151 19.8737 90.8151 18.967V17.127C90.5271 17.639 90.1005 18.0657 89.5351 18.407C88.9698 18.7483 88.3085 18.919 87.5511 18.919C86.7725 18.919 86.0631 18.727 85.4231 18.343C84.7938 17.959 84.2978 17.4203 83.9351 16.727C83.5725 16.0337 83.3911 15.2443 83.3911 14.359C83.3911 13.463 83.5725 12.679 83.9351 12.007C84.2978 11.3243 84.7938 10.7963 85.4231 10.423C86.0631 10.0497 86.7725 9.86299 87.5511 9.86299ZM90.8151 14.375C90.8151 13.7137 90.6818 13.1377 90.4151 12.647C90.1485 12.1563 89.7858 11.783 89.3271 11.527C88.8791 11.2603 88.3831 11.127 87.8391 11.127C87.2951 11.127 86.7991 11.255 86.3511 11.511C85.9031 11.767 85.5458 12.1403 85.2791 12.631C85.0125 13.1217 84.8791 13.6977 84.8791 14.359C84.8791 15.031 85.0125 15.6177 85.2791 16.119C85.5458 16.6097 85.9031 16.9883 86.3511 17.255C86.7991 17.511 87.2951 17.639 87.8391 17.639C88.3831 17.639 88.8791 17.511 89.3271 17.255C89.7858 16.9883 90.1485 16.6097 90.4151 16.119C90.6818 15.6177 90.8151 15.0363 90.8151 14.375Z"
                                        fill="#696969" />
                                </svg>