<svg width="76" height="33" viewBox="0 0 76 33" fill="none" xmlns="http://www.w3.org/2000/svg">
<path d="M22 8.77499V9.77499M22 13.775V14.775M22 18.775V19.775M22 23.775V24.775M10 17.775H17M10 20.775H14M4.5 7.77499C3.67157 7.77499 3 8.44657 3 9.27499V13.3101C4.1956 14.0017 5 15.2944 5 16.775C5 18.2556 4.1956 19.5482 3 20.2399V24.275C3 25.1034 3.67157 25.775 4.5 25.775H27.5C28.3284 25.775 29 25.1034 29 24.275V20.2399C27.8044 19.5482 27 18.2556 27 16.775C27 15.2944 27.8044 14.0017 29 13.3101V9.27499C29 8.44657 28.3284 7.77499 27.5 7.77499H4.5Z" stroke="#F84757" stroke-width="1.5" stroke-linecap="round" stroke-linejoin="round"/>
<path d="M47.34 19.755C47.34 20.4483 47.16 21.1017 46.8 21.715C46.4533 22.315 45.9333 22.815 45.24 23.215C44.56 23.6017 43.7533 23.8283 42.82 23.895V25.515H41.54V23.875C40.2067 23.755 39.1333 23.355 38.32 22.675C37.5067 21.9817 37.0867 21.0483 37.06 19.875H40.06C40.14 20.835 40.6333 21.415 41.54 21.615V17.795C40.58 17.555 39.8067 17.315 39.22 17.075C38.6333 16.835 38.1267 16.4483 37.7 15.915C37.2733 15.3817 37.06 14.655 37.06 13.735C37.06 12.575 37.4733 11.6283 38.3 10.895C39.14 10.1617 40.22 9.74166 41.54 9.63499V8.01499H42.82V9.63499C44.1 9.74166 45.12 10.1283 45.88 10.795C46.6533 11.4617 47.0867 12.3817 47.18 13.555H44.16C44.12 13.1683 43.98 12.835 43.74 12.555C43.5133 12.2617 43.2067 12.055 42.82 11.935V15.715C43.82 15.9683 44.6067 16.215 45.18 16.455C45.7667 16.6817 46.2733 17.0617 46.7 17.595C47.1267 18.115 47.34 18.835 47.34 19.755ZM39.98 13.595C39.98 14.035 40.1133 14.395 40.38 14.675C40.6467 14.9417 41.0333 15.1617 41.54 15.335V11.875C41.06 11.9417 40.68 12.1217 40.4 12.415C40.12 12.7083 39.98 13.1017 39.98 13.595ZM42.82 21.655C43.3267 21.5617 43.72 21.355 44 21.035C44.2933 20.715 44.44 20.3283 44.44 19.875C44.44 19.435 44.3 19.0817 44.02 18.815C43.74 18.5483 43.34 18.3283 42.82 18.155V21.655ZM50.0259 20.935V18.735L56.5659 9.37499H59.8259V18.495H61.5859V20.935H59.8259V23.775H57.0259V20.935H50.0259ZM57.2059 12.375L53.1059 18.495H57.2059V12.375ZM73.1686 11.615H66.6886V15.035C66.9686 14.6883 67.3686 14.4083 67.8886 14.195C68.4086 13.9683 68.9619 13.855 69.5486 13.855C70.6153 13.855 71.4886 14.0883 72.1686 14.555C72.8486 15.0217 73.3419 15.6217 73.6486 16.355C73.9553 17.075 74.1086 17.8483 74.1086 18.675C74.1086 20.2083 73.6686 21.4417 72.7886 22.375C71.9219 23.3083 70.6819 23.775 69.0686 23.775C67.5486 23.775 66.3353 23.395 65.4286 22.635C64.5219 21.875 64.0086 20.8817 63.8886 19.655H66.6086C66.7286 20.1883 66.9953 20.615 67.4086 20.935C67.8353 21.255 68.3753 21.415 69.0286 21.415C69.8153 21.415 70.4086 21.1683 70.8086 20.675C71.2086 20.1817 71.4086 19.5283 71.4086 18.715C71.4086 17.8883 71.2019 17.2617 70.7886 16.835C70.3886 16.395 69.7953 16.175 69.0086 16.175C68.4486 16.175 67.9819 16.315 67.6086 16.595C67.2353 16.875 66.9686 17.2483 66.8086 17.715H64.1286V9.15499H73.1686V11.615Z" fill="#F84757"/>
</svg>
