<svg width="120" height="24" viewBox="0 0 120 24" fill="none" xmlns="http://www.w3.org/2000/svg">
<path d="M21 21L15.8033 15.8033M15.8033 15.8033C17.1605 14.4461 18 12.5711 18 10.5C18 6.35786 14.6421 3 10.5 3C6.35786 3 3 6.35786 3 10.5C3 14.6421 6.35786 18 10.5 18C12.5711 18 14.4461 17.1605 15.8033 15.8033Z" stroke="#FFF5F6" stroke-width="1.5" stroke-linecap="round" stroke-linejoin="round"/>
<path d="M63.75 6C63.75 8.07107 62.0711 9.75 60 9.75C57.929 9.75 56.25 8.07107 56.25 6C56.25 3.92893 57.929 2.25 60 2.25C62.0711 2.25 63.75 3.92893 63.75 6Z" stroke="#FFF5F6" stroke-width="1.5" stroke-linecap="round" stroke-linejoin="round"/>
<path d="M52.5012 20.1182C52.5715 16.0369 55.9019 12.75 60 12.75C64.0983 12.75 67.4287 16.0371 67.4989 20.1185C65.2161 21.166 62.6764 21.75 60.0003 21.75C57.324 21.75 54.7841 21.1659 52.5012 20.1182Z" stroke="#FFF5F6" stroke-width="1.5" stroke-linecap="round" stroke-linejoin="round"/>
<path d="M111.75 10.5V6C111.75 3.92893 110.071 2.25 108 2.25C105.929 2.25 104.25 3.92893 104.25 6V10.5M115.606 8.50723L116.869 20.5072C116.939 21.1715 116.418 21.75 115.75 21.75H100.25C99.5817 21.75 99.0609 21.1715 99.1308 20.5072L100.394 8.50723C100.454 7.93466 100.937 7.5 101.513 7.5H114.487C115.063 7.5 115.546 7.93466 115.606 8.50723ZM104.625 10.5C104.625 10.7071 104.457 10.875 104.25 10.875C104.043 10.875 103.875 10.7071 103.875 10.5C103.875 10.2929 104.043 10.125 104.25 10.125C104.457 10.125 104.625 10.2929 104.625 10.5ZM112.125 10.5C112.125 10.7071 111.957 10.875 111.75 10.875C111.543 10.875 111.375 10.7071 111.375 10.5C111.375 10.2929 111.543 10.125 111.75 10.125C111.957 10.125 112.125 10.2929 112.125 10.5Z" stroke="#FFF5F6" stroke-width="1.5" stroke-linecap="round" stroke-linejoin="round"/>
</svg>
